<mxfile host="Electron" agent="Mozilla/5.0 (X11; Linux x86_64) AppleWebKit/537.36 (KHTML, like Gecko) draw.io/24.7.5 Chrome/126.0.6478.183 Electron/31.3.0 Safari/537.36" version="24.7.5">
  <diagram name="第 1 页" id="huckOj3Etd9BhcJPRhfS">
    <mxGraphModel dx="691" dy="453" grid="1" gridSize="10" guides="1" tooltips="1" connect="1" arrows="1" fold="1" page="0" pageScale="1" pageWidth="827" pageHeight="1169" math="0" shadow="0">
      <root>
        <mxCell id="0" />
        <mxCell id="1" parent="0" />
        <mxCell id="_sT6gdZ_hLt8uZibd5yT-2" value="&lt;font style=&quot;font-size: 10px;&quot;&gt;Inst[]&lt;/font&gt;&lt;div style=&quot;font-size: 10px;&quot;&gt;&lt;font style=&quot;font-size: 10px;&quot;&gt;BrEq&lt;/font&gt;&lt;/div&gt;&lt;div style=&quot;font-size: 10px;&quot;&gt;&lt;font style=&quot;font-size: 10px;&quot;&gt;BrUn&lt;/font&gt;&lt;/div&gt;" style="edgeStyle=orthogonalEdgeStyle;rounded=0;orthogonalLoop=1;jettySize=auto;html=1;endArrow=dash;endFill=0;startArrow=classic;startFill=1;jumpSize=6;verticalAlign=bottom;fontSize=10;fontFamily=FreeMono;" edge="1" parent="1">
          <mxGeometry relative="1" as="geometry">
            <mxPoint x="140" y="340" as="targetPoint" />
            <mxPoint x="200" y="339.75" as="sourcePoint" />
            <Array as="points">
              <mxPoint x="170" y="340" />
              <mxPoint x="140" y="340" />
            </Array>
          </mxGeometry>
        </mxCell>
        <mxCell id="_sT6gdZ_hLt8uZibd5yT-1" value="&lt;font style=&quot;font-size: 12px;&quot;&gt;DMUX (Address Decoder)&lt;/font&gt;" style="shape=trapezoid;perimeter=trapezoidPerimeter;whiteSpace=wrap;html=1;fixedSize=1;rotation=-90;fontSize=10;fontFamily=FreeMono;" vertex="1" parent="1">
          <mxGeometry x="120" y="320" width="200" height="40" as="geometry" />
        </mxCell>
        <mxCell id="_sT6gdZ_hLt8uZibd5yT-3" value="&lt;font style=&quot;font-size: 8px;&quot;&gt;11&lt;/font&gt;" style="text;strokeColor=none;align=center;fillColor=none;html=1;verticalAlign=middle;whiteSpace=wrap;rounded=0;fontFamily=FreeMono;" vertex="1" parent="1">
          <mxGeometry x="140" y="340" width="10" height="10" as="geometry" />
        </mxCell>
        <mxCell id="_sT6gdZ_hLt8uZibd5yT-33" style="edgeStyle=orthogonalEdgeStyle;rounded=0;orthogonalLoop=1;jettySize=auto;html=1;startArrow=dash;startFill=0;" edge="1" parent="1" source="_sT6gdZ_hLt8uZibd5yT-4">
          <mxGeometry relative="1" as="geometry">
            <mxPoint x="400" y="480" as="targetPoint" />
          </mxGeometry>
        </mxCell>
        <mxCell id="_sT6gdZ_hLt8uZibd5yT-4" value="" style="rounded=0;whiteSpace=wrap;html=1;" vertex="1" parent="1">
          <mxGeometry x="280" y="240" width="240" height="200" as="geometry" />
        </mxCell>
        <mxCell id="_sT6gdZ_hLt8uZibd5yT-5" value="" style="endArrow=none;html=1;rounded=0;" edge="1" parent="1">
          <mxGeometry width="50" height="50" relative="1" as="geometry">
            <mxPoint x="280" y="260" as="sourcePoint" />
            <mxPoint x="520" y="260" as="targetPoint" />
          </mxGeometry>
        </mxCell>
        <mxCell id="_sT6gdZ_hLt8uZibd5yT-6" value="" style="endArrow=none;html=1;rounded=0;" edge="1" parent="1">
          <mxGeometry width="50" height="50" relative="1" as="geometry">
            <mxPoint x="280" y="280" as="sourcePoint" />
            <mxPoint x="520" y="280" as="targetPoint" />
          </mxGeometry>
        </mxCell>
        <mxCell id="_sT6gdZ_hLt8uZibd5yT-7" value="" style="endArrow=none;html=1;rounded=0;" edge="1" parent="1">
          <mxGeometry width="50" height="50" relative="1" as="geometry">
            <mxPoint x="280" y="300" as="sourcePoint" />
            <mxPoint x="520" y="300" as="targetPoint" />
          </mxGeometry>
        </mxCell>
        <mxCell id="_sT6gdZ_hLt8uZibd5yT-8" value="" style="endArrow=none;html=1;rounded=0;" edge="1" parent="1">
          <mxGeometry width="50" height="50" relative="1" as="geometry">
            <mxPoint x="280" y="320" as="sourcePoint" />
            <mxPoint x="520" y="320" as="targetPoint" />
          </mxGeometry>
        </mxCell>
        <mxCell id="_sT6gdZ_hLt8uZibd5yT-9" value="" style="endArrow=none;html=1;rounded=0;" edge="1" parent="1">
          <mxGeometry width="50" height="50" relative="1" as="geometry">
            <mxPoint x="280" y="339.87" as="sourcePoint" />
            <mxPoint x="520" y="339.87" as="targetPoint" />
          </mxGeometry>
        </mxCell>
        <mxCell id="_sT6gdZ_hLt8uZibd5yT-10" value="" style="endArrow=none;html=1;rounded=0;" edge="1" parent="1">
          <mxGeometry width="50" height="50" relative="1" as="geometry">
            <mxPoint x="280" y="360" as="sourcePoint" />
            <mxPoint x="520" y="360" as="targetPoint" />
          </mxGeometry>
        </mxCell>
        <mxCell id="_sT6gdZ_hLt8uZibd5yT-11" value="" style="endArrow=none;html=1;rounded=0;" edge="1" parent="1">
          <mxGeometry width="50" height="50" relative="1" as="geometry">
            <mxPoint x="280" y="380" as="sourcePoint" />
            <mxPoint x="520" y="380" as="targetPoint" />
          </mxGeometry>
        </mxCell>
        <mxCell id="_sT6gdZ_hLt8uZibd5yT-12" value="" style="endArrow=none;html=1;rounded=0;" edge="1" parent="1">
          <mxGeometry width="50" height="50" relative="1" as="geometry">
            <mxPoint x="280" y="400" as="sourcePoint" />
            <mxPoint x="520" y="400" as="targetPoint" />
          </mxGeometry>
        </mxCell>
        <mxCell id="_sT6gdZ_hLt8uZibd5yT-13" value="" style="endArrow=none;html=1;rounded=0;" edge="1" parent="1">
          <mxGeometry width="50" height="50" relative="1" as="geometry">
            <mxPoint x="280" y="420" as="sourcePoint" />
            <mxPoint x="520" y="420" as="targetPoint" />
          </mxGeometry>
        </mxCell>
        <mxCell id="_sT6gdZ_hLt8uZibd5yT-14" value="&lt;font style=&quot;font-size: 8px;&quot; face=&quot;FreeMono&quot;&gt;and&lt;/font&gt;" style="endArrow=classic;html=1;rounded=0;exitX=0.95;exitY=1;exitDx=0;exitDy=0;exitPerimeter=0;verticalAlign=bottom;align=right;" edge="1" parent="1" source="_sT6gdZ_hLt8uZibd5yT-1">
          <mxGeometry width="50" height="50" relative="1" as="geometry">
            <mxPoint x="260" y="300" as="sourcePoint" />
            <mxPoint x="280" y="250" as="targetPoint" />
          </mxGeometry>
        </mxCell>
        <mxCell id="_sT6gdZ_hLt8uZibd5yT-15" value="&lt;font style=&quot;font-size: 8px;&quot; face=&quot;FreeMono&quot;&gt;sub&lt;/font&gt;" style="endArrow=classic;html=1;rounded=0;exitX=0.95;exitY=1;exitDx=0;exitDy=0;exitPerimeter=0;verticalAlign=bottom;align=right;" edge="1" parent="1">
          <mxGeometry width="50" height="50" relative="1" as="geometry">
            <mxPoint x="240" y="270" as="sourcePoint" />
            <mxPoint x="280" y="270" as="targetPoint" />
          </mxGeometry>
        </mxCell>
        <mxCell id="_sT6gdZ_hLt8uZibd5yT-16" value="&lt;font style=&quot;font-size: 8px;&quot; face=&quot;FreeMono&quot;&gt;or&lt;/font&gt;" style="endArrow=classic;html=1;rounded=0;exitX=0.95;exitY=1;exitDx=0;exitDy=0;exitPerimeter=0;verticalAlign=bottom;align=right;" edge="1" parent="1">
          <mxGeometry width="50" height="50" relative="1" as="geometry">
            <mxPoint x="240" y="290" as="sourcePoint" />
            <mxPoint x="280" y="290" as="targetPoint" />
          </mxGeometry>
        </mxCell>
        <mxCell id="_sT6gdZ_hLt8uZibd5yT-19" value="" style="endArrow=none;dashed=1;html=1;dashPattern=1 3;strokeWidth=2;rounded=0;" edge="1" parent="1">
          <mxGeometry width="50" height="50" relative="1" as="geometry">
            <mxPoint x="260" y="390" as="sourcePoint" />
            <mxPoint x="260" y="310" as="targetPoint" />
          </mxGeometry>
        </mxCell>
        <mxCell id="_sT6gdZ_hLt8uZibd5yT-20" value="" style="endArrow=classic;html=1;rounded=0;exitX=0.95;exitY=1;exitDx=0;exitDy=0;exitPerimeter=0;verticalAlign=bottom;align=right;" edge="1" parent="1">
          <mxGeometry width="50" height="50" relative="1" as="geometry">
            <mxPoint x="240" y="410" as="sourcePoint" />
            <mxPoint x="280" y="410" as="targetPoint" />
          </mxGeometry>
        </mxCell>
        <mxCell id="_sT6gdZ_hLt8uZibd5yT-23" value="&lt;font style=&quot;font-size: 8px;&quot; face=&quot;FreeMono&quot;&gt;jal&lt;/font&gt;" style="endArrow=classic;html=1;rounded=0;exitX=0.95;exitY=1;exitDx=0;exitDy=0;exitPerimeter=0;verticalAlign=bottom;align=right;" edge="1" parent="1">
          <mxGeometry width="50" height="50" relative="1" as="geometry">
            <mxPoint x="240" y="430" as="sourcePoint" />
            <mxPoint x="280" y="430" as="targetPoint" />
          </mxGeometry>
        </mxCell>
        <mxCell id="_sT6gdZ_hLt8uZibd5yT-24" value="&lt;font face=&quot;FreeMono&quot;&gt;&lt;i&gt;Control Word for&lt;/i&gt; &lt;b&gt;add&lt;/b&gt;&lt;/font&gt;" style="text;strokeColor=none;align=left;fillColor=none;html=1;verticalAlign=middle;whiteSpace=wrap;rounded=0;" vertex="1" parent="1">
          <mxGeometry x="320" y="240" width="160" height="20" as="geometry" />
        </mxCell>
        <mxCell id="_sT6gdZ_hLt8uZibd5yT-25" value="&lt;font face=&quot;FreeMono&quot;&gt;&lt;i&gt;Control Word for&lt;/i&gt; &lt;b&gt;sub&lt;/b&gt;&lt;/font&gt;" style="text;strokeColor=none;align=left;fillColor=none;html=1;verticalAlign=middle;whiteSpace=wrap;rounded=0;" vertex="1" parent="1">
          <mxGeometry x="320" y="260" width="160" height="20" as="geometry" />
        </mxCell>
        <mxCell id="_sT6gdZ_hLt8uZibd5yT-26" value="&lt;font face=&quot;FreeMono&quot;&gt;&lt;i&gt;Control Word for&lt;/i&gt; &lt;b&gt;or&lt;/b&gt;&lt;/font&gt;" style="text;strokeColor=none;align=left;fillColor=none;html=1;verticalAlign=middle;whiteSpace=wrap;rounded=0;" vertex="1" parent="1">
          <mxGeometry x="320" y="280" width="160" height="20" as="geometry" />
        </mxCell>
        <mxCell id="_sT6gdZ_hLt8uZibd5yT-27" value="&lt;font face=&quot;FreeMono&quot;&gt;...&lt;/font&gt;" style="text;strokeColor=none;align=left;fillColor=none;html=1;verticalAlign=middle;whiteSpace=wrap;rounded=0;" vertex="1" parent="1">
          <mxGeometry x="320" y="300" width="160" height="20" as="geometry" />
        </mxCell>
        <mxCell id="_sT6gdZ_hLt8uZibd5yT-28" value="&lt;font face=&quot;FreeMono&quot;&gt;...&lt;/font&gt;" style="text;strokeColor=none;align=left;fillColor=none;html=1;verticalAlign=middle;whiteSpace=wrap;rounded=0;" vertex="1" parent="1">
          <mxGeometry x="320" y="320" width="160" height="20" as="geometry" />
        </mxCell>
        <mxCell id="_sT6gdZ_hLt8uZibd5yT-34" value="&lt;font style=&quot;font-size: 8px;&quot;&gt;15&lt;/font&gt;" style="text;strokeColor=none;align=center;fillColor=none;html=1;verticalAlign=middle;whiteSpace=wrap;rounded=0;fontFamily=FreeMono;" vertex="1" parent="1">
          <mxGeometry x="385" y="440" width="10" height="10" as="geometry" />
        </mxCell>
        <mxCell id="_sT6gdZ_hLt8uZibd5yT-35" value="&lt;font face=&quot;FreeMono&quot;&gt;Controler Output&lt;/font&gt;" style="text;strokeColor=none;align=center;fillColor=none;html=1;verticalAlign=middle;whiteSpace=wrap;rounded=0;" vertex="1" parent="1">
          <mxGeometry x="320" y="480" width="160" height="20" as="geometry" />
        </mxCell>
      </root>
    </mxGraphModel>
  </diagram>
</mxfile>
